<svg xmlns="http://www.w3.org/2000/svg" viewBox="0 0 64 64"><defs><style>.cls-2{fill:#281111}.cls-4{fill:#bd7f00}</style></defs><g id="tiger"><path d="M57 47h-1.44a16.47 16.47 0 0 0-13.47 7 7 7 0 0 1-5.73 3h-8.72a7 7 0 0 1-3.23-.79 6.94 6.94 0 0 1-2.5-2.2A16.47 16.47 0 0 0 8.44 47H7l.44-4 .23-2L8 38l.22-2 .33-3 .13-1.13c0-.29.07-.58.11-.87A23.44 23.44 0 0 1 31 11h2.33A22.66 22.66 0 0 1 41 12.84a23.36 23.36 0 0 1 8.11 5.77A24.3 24.3 0 0 1 55.18 31c.08.46.15.92.2 1.39l.07.61.33 3 .22 2 .33 3 .23 2z" style="fill:#ffab00"/><path class="cls-2" d="M32 48a1 1 0 0 1-1-1v-6a1 1 0 0 1 2 0v6a1 1 0 0 1-1 1z"/><path class="cls-2" d="M26 52a1 1 0 0 1-.55-1.83l6-4a1 1 0 0 1 1.1 1.66l-6 4A.94.94 0 0 1 26 52z"/><path class="cls-2" d="M38 52a.94.94 0 0 1-.55-.17l-6-4a1 1 0 0 1 1.1-1.66l6 4A1 1 0 0 1 38 52z"/><path d="m32 42.38-2.23-1.12A1.4 1.4 0 0 1 29 40a1.39 1.39 0 0 1 1.39-1.39h3.22A1.39 1.39 0 0 1 35 40a1.4 1.4 0 0 1-.77 1.24z" style="fill:#3e2c27"/><path class="cls-4" d="M23 12.8a23.26 23.26 0 0 0-8.24 5.76A6 6 0 1 1 23 12.8zM53 13a6 6 0 0 1-3.88 5.61A23.36 23.36 0 0 0 41 12.84 6 6 0 0 1 53 13zM55.45 33H48a1 1 0 0 1 0-2h7.18c.08.46.15.92.2 1.39zM56 38h-9a1 1 0 0 1 0-2h8.78zM56.56 43H46a1 1 0 0 1 0-2h10.33zM17 32a1 1 0 0 1-1 1H8.55l.13-1.13c0-.29.07-.58.11-.87H16a1 1 0 0 1 1 1zM18 37a1 1 0 0 1-1 1H8l.22-2H17a1 1 0 0 1 1 1zM19 42a1 1 0 0 1-1 1H7.44l.23-2H18a1 1 0 0 1 1 1zM37 17H27a1 1 0 0 1 0-2h10a1 1 0 0 1 0 2zM37 22H27a1 1 0 0 1 0-2h10a1 1 0 0 1 0 2z"/><path class="cls-4" d="M33 11v10a1 1 0 0 1-2 0V11h2z"/><circle class="cls-2" cx="22.5" cy="30.5" r="1.5"/><circle class="cls-2" cx="41.5" cy="30.5" r="1.5"/><path class="cls-2" d="M32 43.38a1 1 0 0 1-.45-.11l-2.23-1.12a2.39 2.39 0 0 1 1.07-4.52h3.22a2.39 2.39 0 0 1 1.07 4.52l-2.23 1.12a1 1 0 0 1-.45.11zm-1.61-3.75A.38.38 0 0 0 30 40a.37.37 0 0 0 .22.34l1.78.9 1.78-.9A.37.37 0 0 0 34 40a.38.38 0 0 0-.39-.39zM14.75 19.56a.94.94 0 0 1-.37-.07A7 7 0 1 1 24 12.77a1 1 0 0 1-.62 1 22.38 22.38 0 0 0-7.88 5.52 1 1 0 0 1-.75.27zM17 8a5 5 0 0 0-2.47 9.34 24.45 24.45 0 0 1 7.4-5.17A5 5 0 0 0 17 8zM49.12 19.61a1 1 0 0 1-.74-.32A22.32 22.32 0 0 0 46 17a1 1 0 1 1 1.24-1.56 22.93 22.93 0 0 1 2.16 2A5 5 0 0 0 47 8a5 5 0 0 0-4.93 4.21c.55.26 1.11.55 1.7.88a1 1 0 1 1-1 1.74c-.77-.42-1.49-.77-2.19-1.07a1 1 0 0 1-.61-.95A7 7 0 0 1 54 13a7 7 0 0 1-4.53 6.55 1 1 0 0 1-.35.06zM36.36 58h-8.72a8.11 8.11 0 0 1-3.64-.9 7.9 7.9 0 0 1-2.86-2.52A15.47 15.47 0 0 0 8.44 48H7a1 1 0 0 1-.75-.33 1 1 0 0 1-.25-.78l1.33-12a1 1 0 0 1 2 .22L8.12 46h.32a17.48 17.48 0 0 1 14.29 7.44 5.87 5.87 0 0 0 2.14 1.88 6 6 0 0 0 2.77.68h8.72a6 6 0 0 0 4.91-2.56 16.43 16.43 0 0 1 1.48-1.83A1 1 0 0 1 44.21 53a14.63 14.63 0 0 0-1.3 1.62A8 8 0 0 1 36.36 58z"/><path class="cls-2" d="M51 48.66a1 1 0 0 1-.28-2 17.54 17.54 0 0 1 4.87-.7h.32L54.39 32.5a23.45 23.45 0 0 0-6-13.21A22.32 22.32 0 0 0 46 17a1 1 0 1 1 1.24-1.56 24.52 24.52 0 0 1 2.66 2.49 25.56 25.56 0 0 1 6.51 14.35L58 46.89a1 1 0 0 1-.24.78A1 1 0 0 1 57 48h-1.44a15.44 15.44 0 0 0-4.31.62.9.9 0 0 1-.25.04zM8.66 33h-.13a1 1 0 0 1-.86-1.12v-.15A24.48 24.48 0 0 1 33.38 10a23.61 23.61 0 0 1 8 1.88 22.52 22.52 0 0 1 2.37 1.17 1 1 0 1 1-1 1.74c-.77-.42-1.49-.77-2.19-1.07A21.68 21.68 0 0 0 33.27 12a22.48 22.48 0 0 0-23.6 20v.17a1 1 0 0 1-1.01.83zM46.52 50.71a1 1 0 0 1-.52-1.84 9.71 9.71 0 0 1 .94-.56 1 1 0 1 1 .94 1.76c-.28.15-.54.32-.8.48a1 1 0 0 1-.56.16z"/></g></svg>